STARTFONT 2.1
FONT -FontForge-Digital7-Book-I-Normal--20-720-20-20-P-80-ISO10646-1
SIZE 72 20 20
FONTBOUNDINGBOX 10 17 0 -2
COMMENT "Generated by fontforge, http://fontforge.sourceforge.net"
COMMENT "Created by Sizenko Alexander. (c) 2008 Style-7. All rights reserved. http://www.styleseven.com"
STARTPROPERTIES 39
FOUNDRY "FontForge"
FAMILY_NAME "Digital7"
WEIGHT_NAME "Book"
SLANT "I"
SETWIDTH_NAME "Normal"
ADD_STYLE_NAME ""
PIXEL_SIZE 20
POINT_SIZE 720
RESOLUTION_X 20
RESOLUTION_Y 20
SPACING "P"
AVERAGE_WIDTH 80
CHARSET_REGISTRY "ISO10646"
CHARSET_ENCODING "1"
FONTNAME_REGISTRY ""
CHARSET_COLLECTIONS "ISO10646-1"
FONT_NAME "Digital-7"
FACE_NAME "Digital-7"
COPYRIGHT "Created by Sizenko Alexander. (c) 2008 Style-7. All rights reserved. http://www.styleseven.com"
FONT_VERSION "1.020 April 07 2011"
FONT_ASCENT 16
FONT_DESCENT 4
UNDERLINE_POSITION -3
UNDERLINE_THICKNESS 2
X_HEIGHT 12
CAP_HEIGHT 12
RAW_ASCENT 800
RAW_DESCENT 200
NORM_SPACE 5
RELATIVE_WEIGHT 40
RELATIVE_SETWIDTH 50
SUPERSCRIPT_X 0
SUPERSCRIPT_Y 8
SUPERSCRIPT_SIZE 11
SUBSCRIPT_X 0
SUBSCRIPT_Y 2
SUBSCRIPT_SIZE 11
AVG_LOWERCASE_WIDTH 87
AVG_UPPERCASE_WIDTH 87
ENDPROPERTIES
CHARS 107
STARTCHAR space
ENCODING 32
SWIDTH 272 0
DWIDTH 5 0
BBX 1 1 0 0
BITMAP
00
ENDCHAR
STARTCHAR exclam
ENCODING 33
SWIDTH 163 0
DWIDTH 3 0
BBX 1 13 1 0
BITMAP
80
80
80
80
80
80
00
00
80
80
80
00
80
ENDCHAR
STARTCHAR quotedbl
ENCODING 34
SWIDTH 310 0
DWIDTH 6 0
BBX 4 4 1 9
BITMAP
90
90
90
90
ENDCHAR
STARTCHAR numbersign
ENCODING 35
SWIDTH 490 0
DWIDTH 10 0
BBX 8 9 1 2
BITMAP
24
24
24
FF
24
FF
24
24
24
ENDCHAR
STARTCHAR dollar
ENCODING 36
SWIDTH 472 0
DWIDTH 9 0
BBX 7 17 1 -2
BITMAP
10
00
FE
00
90
90
90
80
7E
02
12
12
12
02
FE
00
10
ENDCHAR
STARTCHAR percent
ENCODING 37
SWIDTH 545 0
DWIDTH 11 0
BBX 9 13 1 0
BITMAP
F100
9300
9300
F600
0600
0400
0000
1000
3000
3780
6480
6480
4780
ENDCHAR
STARTCHAR ampersand
ENCODING 38
SWIDTH 509 0
DWIDTH 11 0
BBX 8 14 1 -2
BITMAP
7E
42
42
42
00
3F
81
81
81
81
80
FF
00
01
ENDCHAR
STARTCHAR quotesingle
ENCODING 39
SWIDTH 163 0
DWIDTH 3 0
BBX 1 4 1 9
BITMAP
80
80
80
80
ENDCHAR
STARTCHAR parenleft
ENCODING 40
SWIDTH 318 0
DWIDTH 6 0
BBX 4 13 1 0
BITMAP
70
80
80
80
80
80
00
80
80
80
80
80
70
ENDCHAR
STARTCHAR parenright
ENCODING 41
SWIDTH 318 0
DWIDTH 6 0
BBX 4 13 1 0
BITMAP
E0
10
10
10
10
10
00
10
10
10
10
10
E0
ENDCHAR
STARTCHAR asterisk
ENCODING 42
SWIDTH 390 0
DWIDTH 8 0
BBX 5 7 1 3
BITMAP
20
20
F8
70
F8
20
20
ENDCHAR
STARTCHAR plus
ENCODING 43
SWIDTH 400 0
DWIDTH 8 0
BBX 5 7 1 3
BITMAP
20
20
20
F8
20
20
20
ENDCHAR
STARTCHAR comma
ENCODING 44
SWIDTH 163 0
DWIDTH 3 0
BBX 1 3 1 -2
BITMAP
80
80
80
ENDCHAR
STARTCHAR hyphen
ENCODING 45
SWIDTH 400 0
DWIDTH 8 0
BBX 6 1 1 6
BITMAP
FC
ENDCHAR
STARTCHAR period
ENCODING 46
SWIDTH 163 0
DWIDTH 3 0
BBX 1 1 1 0
BITMAP
80
ENDCHAR
STARTCHAR slash
ENCODING 47
SWIDTH 472 0
DWIDTH 9 0
BBX 7 13 1 0
BITMAP
02
06
06
0C
0C
08
00
30
30
60
60
C0
C0
ENDCHAR
STARTCHAR zero
ENCODING 48
SWIDTH 472 0
DWIDTH 9 0
BBX 7 13 1 0
BITMAP
FE
82
82
82
82
82
00
82
82
82
82
82
FE
ENDCHAR
STARTCHAR one
ENCODING 49
SWIDTH 163 0
DWIDTH 3 0
BBX 1 13 1 0
BITMAP
80
80
80
80
80
80
00
80
80
80
80
80
80
ENDCHAR
STARTCHAR two
ENCODING 50
SWIDTH 472 0
DWIDTH 9 0
BBX 7 13 1 0
BITMAP
FE
02
02
02
02
02
FE
80
80
80
80
80
FC
ENDCHAR
STARTCHAR three
ENCODING 51
SWIDTH 472 0
DWIDTH 9 0
BBX 7 13 1 0
BITMAP
FE
02
02
02
02
02
7E
02
02
02
02
02
FE
ENDCHAR
STARTCHAR four
ENCODING 52
SWIDTH 472 0
DWIDTH 9 0
BBX 7 13 1 0
BITMAP
02
82
82
82
82
82
FE
02
02
02
02
02
02
ENDCHAR
STARTCHAR five
ENCODING 53
SWIDTH 472 0
DWIDTH 9 0
BBX 7 13 1 0
BITMAP
FC
80
80
80
80
80
FE
02
02
02
02
02
FE
ENDCHAR
STARTCHAR six
ENCODING 54
SWIDTH 472 0
DWIDTH 9 0
BBX 7 13 1 0
BITMAP
FC
80
80
80
80
80
FE
82
82
82
82
82
FE
ENDCHAR
STARTCHAR seven
ENCODING 55
SWIDTH 472 0
DWIDTH 9 0
BBX 7 13 1 0
BITMAP
FE
82
82
82
82
82
00
02
02
02
02
02
02
ENDCHAR
STARTCHAR eight
ENCODING 56
SWIDTH 472 0
DWIDTH 9 0
BBX 7 13 1 0
BITMAP
FE
82
82
82
82
82
FE
82
82
82
82
82
FE
ENDCHAR
STARTCHAR nine
ENCODING 57
SWIDTH 472 0
DWIDTH 9 0
BBX 7 13 1 0
BITMAP
FE
82
82
82
82
82
FE
02
02
02
02
02
FE
ENDCHAR
STARTCHAR colon
ENCODING 58
SWIDTH 163 0
DWIDTH 3 0
BBX 1 7 1 3
BITMAP
80
00
00
00
00
00
80
ENDCHAR
STARTCHAR semicolon
ENCODING 59
SWIDTH 163 0
DWIDTH 3 0
BBX 1 12 1 -2
BITMAP
80
00
00
00
00
00
00
00
80
80
80
80
ENDCHAR
STARTCHAR less
ENCODING 60
SWIDTH 336 0
DWIDTH 7 0
BBX 5 7 1 3
BITMAP
18
30
60
80
E0
30
18
ENDCHAR
STARTCHAR equal
ENCODING 61
SWIDTH 400 0
DWIDTH 8 0
BBX 6 3 1 5
BITMAP
FC
00
FC
ENDCHAR
STARTCHAR greater
ENCODING 62
SWIDTH 336 0
DWIDTH 7 0
BBX 4 7 1 3
BITMAP
C0
60
30
00
30
60
C0
ENDCHAR
STARTCHAR question
ENCODING 63
SWIDTH 472 0
DWIDTH 9 0
BBX 7 13 1 0
BITMAP
FE
02
02
02
02
02
FE
80
80
80
00
00
80
ENDCHAR
STARTCHAR at
ENCODING 64
SWIDTH 472 0
DWIDTH 9 0
BBX 7 13 1 0
BITMAP
FE
82
82
9E
92
92
00
92
92
9E
80
80
FC
ENDCHAR
STARTCHAR A
ENCODING 65
SWIDTH 472 0
DWIDTH 9 0
BBX 7 13 1 0
BITMAP
FE
82
82
82
82
82
FE
82
82
82
82
82
82
ENDCHAR
STARTCHAR B
ENCODING 66
SWIDTH 472 0
DWIDTH 9 0
BBX 7 13 1 0
BITMAP
FC
82
82
82
82
82
FE
82
82
82
82
82
FC
ENDCHAR
STARTCHAR C
ENCODING 67
SWIDTH 436 0
DWIDTH 9 0
BBX 7 13 1 0
BITMAP
FE
80
80
80
80
80
00
80
80
80
80
80
FC
ENDCHAR
STARTCHAR D
ENCODING 68
SWIDTH 472 0
DWIDTH 9 0
BBX 7 13 1 0
BITMAP
FC
82
82
82
82
82
00
82
82
82
82
82
FC
ENDCHAR
STARTCHAR E
ENCODING 69
SWIDTH 436 0
DWIDTH 9 0
BBX 7 13 1 0
BITMAP
FE
80
80
80
80
80
7E
80
80
80
80
80
FC
ENDCHAR
STARTCHAR F
ENCODING 70
SWIDTH 436 0
DWIDTH 9 0
BBX 7 13 1 0
BITMAP
FE
80
80
80
80
80
FC
80
80
80
80
80
80
ENDCHAR
STARTCHAR G
ENCODING 71
SWIDTH 472 0
DWIDTH 9 0
BBX 7 13 1 0
BITMAP
FC
80
80
80
80
80
0E
82
82
82
82
82
FE
ENDCHAR
STARTCHAR H
ENCODING 72
SWIDTH 472 0
DWIDTH 9 0
BBX 7 13 1 0
BITMAP
82
82
82
82
82
82
FE
82
82
82
82
82
82
ENDCHAR
STARTCHAR I
ENCODING 73
SWIDTH 163 0
DWIDTH 3 0
BBX 1 13 1 0
BITMAP
80
80
80
80
80
80
00
80
80
80
80
80
80
ENDCHAR
STARTCHAR J
ENCODING 74
SWIDTH 472 0
DWIDTH 9 0
BBX 7 13 1 0
BITMAP
02
02
02
02
02
02
00
82
82
82
82
82
FE
ENDCHAR
STARTCHAR K
ENCODING 75
SWIDTH 472 0
DWIDTH 9 0
BBX 7 13 1 0
BITMAP
86
8C
98
B0
B0
80
FE
82
82
82
82
82
82
ENDCHAR
STARTCHAR L
ENCODING 76
SWIDTH 472 0
DWIDTH 9 0
BBX 7 13 1 0
BITMAP
80
80
80
80
80
80
00
80
80
80
80
80
FE
ENDCHAR
STARTCHAR M
ENCODING 77
SWIDTH 472 0
DWIDTH 9 0
BBX 7 13 1 0
BITMAP
FE
82
92
92
92
92
10
82
82
82
82
82
82
ENDCHAR
STARTCHAR N
ENCODING 78
SWIDTH 472 0
DWIDTH 9 0
BBX 7 13 1 0
BITMAP
82
82
B2
9A
8E
82
00
82
82
82
82
82
82
ENDCHAR
STARTCHAR O
ENCODING 79
SWIDTH 472 0
DWIDTH 9 0
BBX 7 13 1 0
BITMAP
7C
82
82
82
82
82
00
82
82
82
82
82
7C
ENDCHAR
STARTCHAR P
ENCODING 80
SWIDTH 472 0
DWIDTH 9 0
BBX 7 13 1 0
BITMAP
FC
82
82
82
82
82
FE
80
80
80
80
80
80
ENDCHAR
STARTCHAR Q
ENCODING 81
SWIDTH 481 0
DWIDTH 9 0
BBX 8 13 1 0
BITMAP
FE
82
82
82
82
82
00
82
82
82
8E
86
FB
ENDCHAR
STARTCHAR R
ENCODING 82
SWIDTH 472 0
DWIDTH 9 0
BBX 7 13 1 0
BITMAP
FE
82
82
82
82
82
FE
80
B0
B0
98
8C
86
ENDCHAR
STARTCHAR S
ENCODING 83
SWIDTH 472 0
DWIDTH 9 0
BBX 7 13 1 0
BITMAP
FE
80
80
80
80
80
FE
02
02
02
02
02
FE
ENDCHAR
STARTCHAR T
ENCODING 84
SWIDTH 471 0
DWIDTH 9 0
BBX 7 13 1 0
BITMAP
FE
00
10
10
10
10
00
10
10
10
10
10
10
ENDCHAR
STARTCHAR U
ENCODING 85
SWIDTH 472 0
DWIDTH 9 0
BBX 7 13 1 0
BITMAP
82
82
82
82
82
82
00
82
82
82
82
82
FE
ENDCHAR
STARTCHAR V
ENCODING 86
SWIDTH 472 0
DWIDTH 9 0
BBX 7 12 1 1
BITMAP
82
82
82
82
82
82
00
82
82
44
28
28
ENDCHAR
STARTCHAR W
ENCODING 87
SWIDTH 472 0
DWIDTH 9 0
BBX 7 13 1 0
BITMAP
82
82
82
82
82
82
10
92
92
92
92
82
FE
ENDCHAR
STARTCHAR X
ENCODING 88
SWIDTH 472 0
DWIDTH 9 0
BBX 7 13 1 0
BITMAP
82
C6
C6
6C
6C
28
00
28
6C
6C
C6
C6
82
ENDCHAR
STARTCHAR Y
ENCODING 89
SWIDTH 472 0
DWIDTH 9 0
BBX 7 13 1 0
BITMAP
02
82
82
82
82
82
FE
02
02
02
02
02
FE
ENDCHAR
STARTCHAR Z
ENCODING 90
SWIDTH 472 0
DWIDTH 9 0
BBX 7 13 1 0
BITMAP
FA
06
06
04
0C
08
00
30
30
60
60
C0
FE
ENDCHAR
STARTCHAR bracketleft
ENCODING 91
SWIDTH 281 0
DWIDTH 6 0
BBX 3 13 1 0
BITMAP
E0
80
80
80
80
80
00
80
80
80
80
80
E0
ENDCHAR
STARTCHAR backslash
ENCODING 92
SWIDTH 470 0
DWIDTH 9 0
BBX 7 13 1 0
BITMAP
C0
C0
60
60
30
30
00
08
0C
0C
06
06
02
ENDCHAR
STARTCHAR bracketright
ENCODING 93
SWIDTH 281 0
DWIDTH 5 0
BBX 3 13 1 0
BITMAP
E0
20
20
20
20
20
00
20
20
20
20
20
E0
ENDCHAR
STARTCHAR asciicircum
ENCODING 94
SWIDTH 471 0
DWIDTH 9 0
BBX 7 5 1 8
BITMAP
10
38
6C
C6
82
ENDCHAR
STARTCHAR underscore
ENCODING 95
SWIDTH 471 0
DWIDTH 9 0
BBX 7 1 1 0
BITMAP
FE
ENDCHAR
STARTCHAR grave
ENCODING 96
SWIDTH 254 0
DWIDTH 5 0
BBX 3 3 1 10
BITMAP
80
40
20
ENDCHAR
STARTCHAR a
ENCODING 97
SWIDTH 472 0
DWIDTH 9 0
BBX 7 13 1 0
BITMAP
FE
82
82
82
82
82
FE
82
82
82
82
82
82
ENDCHAR
STARTCHAR b
ENCODING 98
SWIDTH 472 0
DWIDTH 9 0
BBX 7 13 1 0
BITMAP
FC
82
82
82
82
82
FE
82
82
82
82
82
FC
ENDCHAR
STARTCHAR c
ENCODING 99
SWIDTH 436 0
DWIDTH 9 0
BBX 7 13 1 0
BITMAP
FE
80
80
80
80
80
00
80
80
80
80
80
FC
ENDCHAR
STARTCHAR d
ENCODING 100
SWIDTH 472 0
DWIDTH 9 0
BBX 7 13 1 0
BITMAP
FC
82
82
82
82
82
00
82
82
82
82
82
FC
ENDCHAR
STARTCHAR e
ENCODING 101
SWIDTH 436 0
DWIDTH 9 0
BBX 7 13 1 0
BITMAP
FE
80
80
80
80
80
7E
80
80
80
80
80
FC
ENDCHAR
STARTCHAR f
ENCODING 102
SWIDTH 436 0
DWIDTH 9 0
BBX 7 13 1 0
BITMAP
FE
80
80
80
80
80
FC
80
80
80
80
80
80
ENDCHAR
STARTCHAR g
ENCODING 103
SWIDTH 472 0
DWIDTH 9 0
BBX 7 13 1 0
BITMAP
FC
80
80
80
80
80
0E
82
82
82
82
82
FE
ENDCHAR
STARTCHAR h
ENCODING 104
SWIDTH 472 0
DWIDTH 9 0
BBX 7 13 1 0
BITMAP
82
82
82
82
82
82
FE
82
82
82
82
82
82
ENDCHAR
STARTCHAR i
ENCODING 105
SWIDTH 163 0
DWIDTH 3 0
BBX 1 13 1 0
BITMAP
80
80
80
80
80
80
00
80
80
80
80
80
80
ENDCHAR
STARTCHAR j
ENCODING 106
SWIDTH 472 0
DWIDTH 9 0
BBX 7 13 1 0
BITMAP
02
02
02
02
02
02
00
82
82
82
82
82
FE
ENDCHAR
STARTCHAR k
ENCODING 107
SWIDTH 472 0
DWIDTH 9 0
BBX 7 13 1 0
BITMAP
86
8C
98
B0
B0
80
FE
82
82
82
82
82
82
ENDCHAR
STARTCHAR l
ENCODING 108
SWIDTH 472 0
DWIDTH 9 0
BBX 7 13 1 0
BITMAP
80
80
80
80
80
80
00
80
80
80
80
80
FE
ENDCHAR
STARTCHAR m
ENCODING 109
SWIDTH 472 0
DWIDTH 9 0
BBX 7 13 1 0
BITMAP
FE
82
92
92
92
92
10
82
82
82
82
82
82
ENDCHAR
STARTCHAR n
ENCODING 110
SWIDTH 472 0
DWIDTH 9 0
BBX 7 13 1 0
BITMAP
82
82
B2
9A
8E
82
00
82
82
82
82
82
82
ENDCHAR
STARTCHAR o
ENCODING 111
SWIDTH 472 0
DWIDTH 9 0
BBX 7 13 1 0
BITMAP
7C
82
82
82
82
82
00
82
82
82
82
82
7C
ENDCHAR
STARTCHAR p
ENCODING 112
SWIDTH 472 0
DWIDTH 9 0
BBX 7 13 1 0
BITMAP
FC
82
82
82
82
82
FE
80
80
80
80
80
80
ENDCHAR
STARTCHAR q
ENCODING 113
SWIDTH 481 0
DWIDTH 9 0
BBX 8 13 1 0
BITMAP
FE
82
82
82
82
82
00
82
82
82
8E
86
FB
ENDCHAR
STARTCHAR r
ENCODING 114
SWIDTH 472 0
DWIDTH 9 0
BBX 7 13 1 0
BITMAP
FE
82
82
82
82
82
FE
80
B0
B0
98
8C
86
ENDCHAR
STARTCHAR s
ENCODING 115
SWIDTH 472 0
DWIDTH 9 0
BBX 7 13 1 0
BITMAP
FE
80
80
80
80
80
FE
02
02
02
02
02
FE
ENDCHAR
STARTCHAR t
ENCODING 116
SWIDTH 471 0
DWIDTH 9 0
BBX 7 13 1 0
BITMAP
FE
00
10
10
10
10
00
10
10
10
10
10
10
ENDCHAR
STARTCHAR u
ENCODING 117
SWIDTH 472 0
DWIDTH 9 0
BBX 7 13 1 0
BITMAP
82
82
82
82
82
82
00
82
82
82
82
82
FE
ENDCHAR
STARTCHAR v
ENCODING 118
SWIDTH 472 0
DWIDTH 9 0
BBX 7 12 1 1
BITMAP
82
82
82
82
82
82
00
82
82
44
28
28
ENDCHAR
STARTCHAR w
ENCODING 119
SWIDTH 472 0
DWIDTH 9 0
BBX 7 13 1 0
BITMAP
82
82
82
82
82
82
10
92
92
92
92
82
FE
ENDCHAR
STARTCHAR x
ENCODING 120
SWIDTH 472 0
DWIDTH 9 0
BBX 7 13 1 0
BITMAP
82
C6
C6
6C
6C
28
00
28
6C
6C
C6
C6
82
ENDCHAR
STARTCHAR y
ENCODING 121
SWIDTH 472 0
DWIDTH 9 0
BBX 7 13 1 0
BITMAP
02
82
82
82
82
82
FE
02
02
02
02
02
FE
ENDCHAR
STARTCHAR z
ENCODING 122
SWIDTH 472 0
DWIDTH 9 0
BBX 7 13 1 0
BITMAP
FA
06
06
04
0C
08
00
30
30
60
60
C0
FE
ENDCHAR
STARTCHAR braceleft
ENCODING 123
SWIDTH 390 0
DWIDTH 8 0
BBX 6 13 1 0
BITMAP
3C
20
20
20
20
20
E0
20
20
20
20
20
3C
ENDCHAR
STARTCHAR bar
ENCODING 124
SWIDTH 163 0
DWIDTH 3 0
BBX 1 13 1 0
BITMAP
80
80
80
80
80
80
80
80
80
80
80
80
80
ENDCHAR
STARTCHAR braceright
ENCODING 125
SWIDTH 390 0
DWIDTH 8 0
BBX 6 13 1 0
BITMAP
F0
20
20
20
20
20
1C
20
20
20
20
20
F0
ENDCHAR
STARTCHAR asciitilde
ENCODING 126
SWIDTH 490 0
DWIDTH 10 0
BBX 8 4 1 6
BITMAP
20
00
DB
0C
ENDCHAR
STARTCHAR copyright
ENCODING 169
SWIDTH 527 0
DWIDTH 10 0
BBX 8 13 1 0
BITMAP
FF
81
81
BD
A1
A1
A1
A1
A1
BD
81
81
FF
ENDCHAR
STARTCHAR endash
ENCODING 8211
SWIDTH 490 0
DWIDTH 10 0
BBX 8 1 1 6
BITMAP
FF
ENDCHAR
STARTCHAR emdash
ENCODING 8212
SWIDTH 527 0
DWIDTH 11 0
BBX 9 1 1 6
BITMAP
FF80
ENDCHAR
STARTCHAR quoteleft
ENCODING 8216
SWIDTH 163 0
DWIDTH 3 0
BBX 1 4 1 9
BITMAP
80
80
80
80
ENDCHAR
STARTCHAR quoteright
ENCODING 8217
SWIDTH 163 0
DWIDTH 3 0
BBX 1 4 1 9
BITMAP
80
80
80
80
ENDCHAR
STARTCHAR quotedblleft
ENCODING 8220
SWIDTH 309 0
DWIDTH 6 0
BBX 4 4 1 9
BITMAP
90
90
90
90
ENDCHAR
STARTCHAR quotedblright
ENCODING 8221
SWIDTH 310 0
DWIDTH 6 0
BBX 4 4 1 9
BITMAP
90
90
90
90
ENDCHAR
STARTCHAR bullet
ENCODING 8226
SWIDTH 354 0
DWIDTH 7 0
BBX 5 5 1 4
BITMAP
70
F8
F8
F8
70
ENDCHAR
STARTCHAR perthousand
ENCODING 8240
SWIDTH 536 0
DWIDTH 11 0
BBX 9 13 1 0
BITMAP
E100
A300
A600
EC00
1800
1000
3000
6000
C000
7380
5280
5280
7380
ENDCHAR
STARTCHAR .notdef
ENCODING -1
SWIDTH 527 0
DWIDTH 10 0
BBX 8 13 1 0
BITMAP
FF
81
81
81
81
81
81
81
81
81
81
81
FF
ENDCHAR
STARTCHAR NULL
ENCODING -1
SWIDTH 454 0
DWIDTH 9 0
BBX 1 1 0 0
BITMAP
00
ENDCHAR
STARTCHAR nonmarkingreturn
ENCODING -1
SWIDTH 454 0
DWIDTH 9 0
BBX 1 1 0 0
BITMAP
00
ENDCHAR
ENDFONT
